<mxfile host="app.diagrams.net" modified="2023-01-13T06:30:17.897Z" agent="5.0 (Windows NT 10.0; Win64; x64) AppleWebKit/537.36 (KHTML, like Gecko) Chrome/109.0.0.0 Safari/537.36" etag="IykFWGvutBnSImwl5VVP" version="20.8.5" type="github">
  <diagram id="aME-Bivq16-IjddRPCGT" name="Page-1">
    <mxGraphModel dx="794" dy="430" grid="1" gridSize="10" guides="1" tooltips="1" connect="1" arrows="1" fold="1" page="1" pageScale="1" pageWidth="850" pageHeight="1100" math="0" shadow="0">
      <root>
        <mxCell id="0" />
        <mxCell id="1" parent="0" />
        <mxCell id="RKt2ha2V7cBzXLXELox--2" value="Ireland (Primary)&lt;br&gt;" style="sketch=0;outlineConnect=0;gradientColor=none;html=1;whiteSpace=wrap;fontSize=12;fontStyle=0;shape=mxgraph.aws4.group;grIcon=mxgraph.aws4.group_region;strokeColor=#879196;fillColor=none;verticalAlign=top;align=left;spacingLeft=30;fontColor=#879196;dashed=1;" parent="1" vertex="1">
          <mxGeometry x="560" y="40" width="120" height="120" as="geometry" />
        </mxCell>
        <mxCell id="RKt2ha2V7cBzXLXELox--4" value="Ohio (Secondary)&lt;br&gt;" style="sketch=0;outlineConnect=0;gradientColor=none;html=1;whiteSpace=wrap;fontSize=12;fontStyle=0;shape=mxgraph.aws4.group;grIcon=mxgraph.aws4.group_region;strokeColor=#879196;fillColor=none;verticalAlign=top;align=left;spacingLeft=30;fontColor=#879196;dashed=1;" parent="1" vertex="1">
          <mxGeometry x="560" y="240" width="120" height="120" as="geometry" />
        </mxCell>
        <mxCell id="RKt2ha2V7cBzXLXELox--5" value="Users" style="sketch=0;outlineConnect=0;gradientColor=none;fontColor=#545B64;strokeColor=none;fillColor=#879196;dashed=0;verticalLabelPosition=bottom;verticalAlign=top;align=center;html=1;fontSize=12;fontStyle=0;aspect=fixed;shape=mxgraph.aws4.illustration_users;pointerEvents=1" parent="1" vertex="1">
          <mxGeometry x="80" y="160" width="80" height="80" as="geometry" />
        </mxCell>
        <mxCell id="RKt2ha2V7cBzXLXELox--6" value="" style="endArrow=none;dashed=1;html=1;dashPattern=1 3;strokeWidth=2;rounded=0;" parent="1" edge="1">
          <mxGeometry width="50" height="50" relative="1" as="geometry">
            <mxPoint x="360" y="200" as="sourcePoint" />
            <mxPoint x="500" y="100" as="targetPoint" />
          </mxGeometry>
        </mxCell>
        <mxCell id="RKt2ha2V7cBzXLXELox--8" value="dct.bpglobal.com" style="text;html=1;strokeColor=none;fillColor=none;align=center;verticalAlign=middle;whiteSpace=wrap;rounded=0;fontStyle=1" parent="1" vertex="1">
          <mxGeometry x="200" y="180" width="60" height="30" as="geometry" />
        </mxCell>
        <mxCell id="RKt2ha2V7cBzXLXELox--9" value="" style="shape=image;verticalLabelPosition=bottom;labelBackgroundColor=default;verticalAlign=top;aspect=fixed;imageAspect=0;image=data:image/png,iVBORw0KGgoAAAANSUhEUgAAABAAAAAYCAYAAADzoH0MAAAAAXNSR0IArs4c6QAAAARnQU1BAACxjwv8YQUAAAAJcEhZcwAAFiUAABYlAUlSJPAAAAItSURBVDhP3VRNSJRRFL3fRPkzNjMpGRWNIBLBEKVCTZFKtXApaNsKsU0WSIGr6Ec3UVFt2kQ0URtR1E2LIkgIsggUcgZz1BzTyBoa02l+xJ98zTnzvXFkdFOrOvC495x3333ve/e+z1AJyF/AYto/xn+QYM1LjE8GJNj9ROZHB2Up4Ke2oXCHZJcekm21pyTXWUwNyEgw1eGR6XutomIRciM3TwzrZln+/jXJE779dJM4Gy6QCxJoDDfXq4GyfOU94lQTD26rhdkf5oyi/6X9IecQM9R4gnoqQfBZFyd81S4Vmxgz1Uwgka/WzVhswgQQvRVFFGe9fQzEbtoH4EMDsAFOgjVMgAksHm1pYkCo9yU5ArAQQ2+AOSBw5wo5yxj3e3kftgOVtAWHj0n28Rpe5OS5Og740DAH2A5W0TLBwtgQSdbOIlpg902PbHIf5UIM+NA0bK5S2lWNtBQJm55I2Ncvi74+kwl9aBqL4RlaJsjZ7yaJfXhPi8D0Y6d/jk4SNWMt499Wjh553kmLTjO2bk8dGwNJoOkuDLXdp5WT15WKzqlUbXG7AEqb3kiA5qg/YtEzcvmRUk/fJusMkUnuXmXgWtDlw0BJjeCMUoWO5GnwDkI3mulbEo/HWl0n1j37yGP+AYm/fiG/xofJHWcvifPMxczHhEv6fO28LH8aMZXVsCTuYdetx2LfW06+7j9x+k2P/Hz3SuY/DpJnlbjYPKj/RvsWasA//1MV+Q2Yz9g3Xg1CqgAAAABJRU5ErkJggg==;" parent="1" vertex="1">
          <mxGeometry x="500" y="84" width="16" height="24" as="geometry" />
        </mxCell>
        <mxCell id="RKt2ha2V7cBzXLXELox--12" value="" style="endArrow=none;dashed=1;html=1;dashPattern=1 3;strokeWidth=2;rounded=0;startArrow=none;" parent="1" source="RKt2ha2V7cBzXLXELox--13" edge="1">
          <mxGeometry width="50" height="50" relative="1" as="geometry">
            <mxPoint x="360" y="200" as="sourcePoint" />
            <mxPoint x="560" y="309.9230769230769" as="targetPoint" />
          </mxGeometry>
        </mxCell>
        <mxCell id="RKt2ha2V7cBzXLXELox--14" value="" style="endArrow=none;dashed=1;html=1;dashPattern=1 3;strokeWidth=2;rounded=0;" parent="1" target="RKt2ha2V7cBzXLXELox--13" edge="1">
          <mxGeometry width="50" height="50" relative="1" as="geometry">
            <mxPoint x="360" y="200" as="sourcePoint" />
            <mxPoint x="560" y="309.9230769230769" as="targetPoint" />
          </mxGeometry>
        </mxCell>
        <mxCell id="RKt2ha2V7cBzXLXELox--13" value="" style="shape=image;verticalLabelPosition=bottom;labelBackgroundColor=default;verticalAlign=top;aspect=fixed;imageAspect=0;image=data:image/png,iVBORw0KGgoAAAANSUhEUgAAABMAAAAWCAYAAAAinad/AAAAAXNSR0IArs4c6QAAAARnQU1BAACxjwv8YQUAAAAJcEhZcwAAFiUAABYlAUlSJPAAAAI2SURBVDhPY/wPBAxUAkxQmiqAqobh9eaDN3cYLj09x3D52TkwX1fKiEFP2ohBQUQFzEcHWA378O0dQ+6aGIaDD3ZCRVCBkaQFw4TAhRiGYhi28cJKhsodGQxffn0C81UENRmk+GQZeNn5GW6+vsJw5/11sDgPGx9DhUM7Q5xFBpgPBiDDYOD+69v/NdsF/ss2Mv13nKT9/9zDk1AZBACp8ZtpCVYDwshqUAyDKQLRhEDG8nCwWqfJOlARJMMWHp8OltRo4////utbqCgmALkMBEBqTHpkwXom7WsDi8GTxuP398F0jEE6gwCXEJiNDhadmMFgN00dTIPU5FpXgcWvvbwIpuGGnXp8GExbKzmBaZAGEIYBELtmVzaUBwFygopg+tmnR2CaBUwiAX5OQXD6QtcI47e4TYXHoIO6O5g+/+IkmMbIAR+/vwenH5AmEAAZgs0gEDj/6BSYNpQwB9Nww8xkbcH00Xv7wDRIE8xAEEA3CARgOUOKTw5Mw2Nzw/kV4JgBpTPk2ATFMgijA5Aa0145lNjEms5iFnpCRXADWDoDJe7Hr/7/j21HShogMDFoEQM3Ky84TwbMtgZHBDoA5VuQ3NZbq8H8Xv95DKsPMjB8/YEjb1ZsT2f4+vszmA/K1OoiumD2zTeXGc49PwFmgyzt8JzJ4G8QznD1AQPDyRt4So2c1dEMhx7ugoqgAlDsgXxBsNRABiBvXnxyluHKc0is6UgaMejLGJNWnpELMBIt+YCBAQAtV+7uAfgA7QAAAABJRU5ErkJggg==;" parent="1" vertex="1">
          <mxGeometry x="498.5" y="270" width="19" height="22" as="geometry" />
        </mxCell>
        <mxCell id="QFmOSrHJmNcbv__tDLuG-2" value="Route 53" style="text;html=1;strokeColor=none;fillColor=none;align=center;verticalAlign=middle;whiteSpace=wrap;rounded=0;fontStyle=1" vertex="1" parent="1">
          <mxGeometry x="306" y="220" width="60" height="30" as="geometry" />
        </mxCell>
        <mxCell id="QFmOSrHJmNcbv__tDLuG-3" value="" style="sketch=0;points=[[0,0,0],[0.25,0,0],[0.5,0,0],[0.75,0,0],[1,0,0],[0,1,0],[0.25,1,0],[0.5,1,0],[0.75,1,0],[1,1,0],[0,0.25,0],[0,0.5,0],[0,0.75,0],[1,0.25,0],[1,0.5,0],[1,0.75,0]];outlineConnect=0;fontColor=#232F3E;gradientColor=#945DF2;gradientDirection=north;fillColor=#5A30B5;strokeColor=#ffffff;dashed=0;verticalLabelPosition=bottom;verticalAlign=top;align=center;html=1;fontSize=12;fontStyle=0;aspect=fixed;shape=mxgraph.aws4.resourceIcon;resIcon=mxgraph.aws4.route_53;" vertex="1" parent="1">
          <mxGeometry x="310" y="170" width="50" height="50" as="geometry" />
        </mxCell>
      </root>
    </mxGraphModel>
  </diagram>
</mxfile>
